<svg xmlns="http://www.w3.org/2000/svg" width="103" height="55" viewBox="0 0 103 55">
    <g fill="none" fill-rule="evenodd">
        <g fill-rule="nonzero">
            <g>
                <g fill="#54585A">
                    <path d="M2.919 3.357L4.432 3.357 4.432 4.696 2.919 4.696z" transform="translate(-24 -17) translate(24 17) translate(20.235 26.889)"/>
                    <path d="M5.711 5.677c0 1.434-1.009 2.377-2.144 2.377-1.08 0-2.108-1.094-2.108-2.34 0-1.074.325-1.772.325-1.772H.234c-.18.622-.234 1-.234 1.773 0 2.207 1.604 3.904 3.55 3.904 2.035 0 3.639-1.528 3.639-3.885V2.452H5.71v3.225zM16.305 8.28L17.819 8.28 17.819 9.619 16.305 9.619zM18.485 8.28L19.999 8.28 19.999 9.619 18.485 9.619zM28.503 5.375c0 .453-.252.698-.649.698h-6.81c-.667 0-1.063-.434-1.063-1.131V2.829h-1.496v2.339c0 .66-.306.924-.882.924h-6.757c-.396 0-.63-.245-.63-.698V.114H8.738V5.28c0 .66.126 2.339 2 2.339h7.297c.685 0 1.261-.32 1.531-.811.289.415.775.81 1.586.81h6.846c1.856 0 2-1.678 2-2.338v-2.83h-1.495v2.924zM28.161 8.28L29.674 8.28 29.674 9.619 28.161 9.619zM44.304 8.28L45.817 8.28 45.817 9.619 44.304 9.619zM44.646 5.375c0 .453-.252.698-.649.698h-7.71V2.452H33.89c-1.604 0-2.613 1.075-2.613 2.508 0 1.49 1.136 2.641 2.613 2.641h.829c-.27.641-1.081.641-1.316.641-.36 0-.702-.075-.954-.17l.396 1.377c.198.057.504.114.775.132 1.063.038 2.45-.415 2.666-1.98h7.856c1.855 0 2-1.679 2-2.339V2.433h-1.496v2.942zm-9.855.698h-.937c-.649 0-1.027-.528-1.027-1.094 0-.528.378-1.131 1.027-1.131h.937v2.225zM55.492 3.15l-.54-.528c-.09.226-.324.188-.36.188h-.721v-.377c0-.264.054-.471.288-.471.126 0 .288.075.306.32h.811c-.054-.81-.414-1.17-1.117-1.17-.793 0-1.099.642-1.099 1.321v.377h-.45l-.253.887h2.18c.325.019.775-.132.955-.547zM67.942.113L69.455.113 69.455 1.452 67.942 1.452z" transform="translate(-24 -17) translate(24 17) translate(20.235 26.889)"/>
                    <path d="M78.914 2.452v2.923c0 .453-.252.698-.648.698h-7.748c-.666 0-1.063-.434-1.063-1.131V2.829H67.96v2.339c0 .66-.306.924-.883.924H59.6c-.684 0-1.063-.434-1.063-1.132V.113h-1.513v5.281c0 .453-.234.698-.63.698H51.96c-.504 0-.9-.396-.99-.792-.109-.528.215-.98.215-.98s-.45-.397-1.08-1c-.595.81-.613 1.584-.595 1.961.054 1.188 1.135 2.339 2.486 2.339h4.504c.829 0 1.316-.34 1.604-.755.306.396.775.755 1.567.755h7.82c.684 0 1.26-.32 1.531-.811.288.415.775.81 1.586.81h7.783c1.856 0 2-1.678 2-2.338v-2.83h-1.478zM78.572 8.28L80.086 8.28 80.086 9.619 78.572 9.619z" transform="translate(-24 -17) translate(24 17) translate(20.235 26.889)"/>
                    <g>
                        <path d="M4.432 5.45v-.018c.397-.17.72-.453.973-.811.252-.377.378-.773.378-1.226C5.783 1.603 4.63.717 2.306.717 1.712.717.936.81 0 1v9.26c.414.076.81.132 1.19.17.377.038.738.057 1.098.057 2.559 0 3.838-.924 3.838-2.754 0-.566-.144-1.056-.45-1.471-.307-.415-.703-.68-1.244-.811zM1.658 2.283l.378-.056c.126-.02.234-.02.342-.02.523 0 .92.057 1.171.19.36.188.523.546.523 1.037 0 .848-.54 1.282-1.622 1.282h-.81V2.282h.018zm.738 6.677c-.108 0-.234 0-.36-.019l-.378-.056V6.205h.846c1.28 0 1.91.472 1.91 1.396 0 .905-.684 1.358-2.018 1.358zM10.216 3.263c-.991 0-1.802.34-2.415 1.018-.612.68-.919 1.547-.919 2.584 0 1.038.307 1.905.901 2.584.63.68 1.442 1.019 2.415 1.019.99 0 1.801-.34 2.414-1.019.612-.679.919-1.546.919-2.584 0-1.037-.307-1.905-.92-2.584-.594-.679-1.404-1.018-2.395-1.018zm1.207 5.111c-.289.453-.685.698-1.225.698s-.937-.226-1.226-.698c-.234-.377-.342-.867-.342-1.49 0-.603.108-1.094.342-1.49.289-.452.685-.698 1.226-.698.54 0 .936.227 1.225.698.234.396.342.887.342 1.49 0 .623-.108 1.113-.342 1.49zM20.341 8.827V3.414h-1.585v5.149c0 .038.018.113.018.189-.505.207-.955.301-1.334.301-.882 0-1.315-.434-1.315-1.282V3.414H14.54v4.62c0 1.642.955 2.453 2.882 2.453.793 0 1.784-.227 3.01-.68-.037-.226-.055-.414-.073-.565-.018-.17-.018-.302-.018-.415zM24.845 3.263c-.54 0-1.027.132-1.477.377V.17h-1.585v9.034c0 .094 0 .208-.018.34-.018.132-.037.301-.055.49.775.302 1.622.453 2.523.453 1.027 0 1.892-.34 2.576-1.019.703-.679 1.063-1.546 1.063-2.584 0-1.037-.252-1.886-.756-2.546-.54-.717-1.298-1.075-2.27-1.075zm.811 5.13c-.342.453-.793.66-1.37.66-.377 0-.684-.056-.954-.15.018-.038.018-.095.018-.133V5.035c.27-.225.63-.339 1.081-.339.559 0 .973.227 1.28.66.251.397.378.887.378 1.49.018.623-.127 1.151-.433 1.547zM31.854 8.676l-1.892-5.262H28.18L30.647 9.6c.198.472.432.755.739.811-.415 1.075-1.1 1.754-2.09 2.037l.828 1.207c1.153-.264 2-1.244 2.577-2.904l2.522-7.337h-1.675l-1.694 5.262zM41.025 5.526c0-.773-.235-1.339-.703-1.735-.432-.358-1.027-.528-1.784-.528-.919 0-1.783.207-2.612.604l.54 1.263c.613-.283 1.226-.415 1.838-.415.739 0 1.117.208 1.117.642 0 .301-.36.546-1.063.697-1.045.246-1.711.434-1.982.585-.702.377-1.063.962-1.063 1.754 0 .736.343 1.302 1.01 1.66.522.283 1.17.434 1.963.434.739 0 1.676-.17 2.829-.528-.054-.378-.09-.68-.09-.868V5.526zm-2.72 3.584c-.83 0-1.226-.283-1.226-.849 0-.302.162-.51.486-.66.145-.075.487-.17 1.027-.283.433-.094.703-.207.847-.358v1.81c0 .038.018.095.018.151-.396.113-.775.189-1.153.189zM45.439 3.263c-.757 0-1.766.226-3.009.698.036.226.054.415.072.584.018.17.018.302.018.397v5.413h1.586V5.319v-.132c0-.038-.018-.095-.018-.17.504-.207.954-.302 1.333-.302.883 0 1.315.434 1.315 1.283v4.357h1.586V5.734c0-1.66-.955-2.471-2.883-2.471zM57.312 5.45v-.018c.396-.17.72-.453.973-.811.252-.377.378-.773.378-1.226 0-1.792-1.153-2.678-3.477-2.678-.595 0-1.37.094-2.306.283v9.26c.414.076.81.132 1.189.17.378.038.739.057 1.099.057 2.558 0 3.838-.924 3.838-2.754 0-.566-.145-1.056-.45-1.471-.307-.415-.721-.68-1.244-.811zm-2.775-3.168l.379-.056c.126-.02.234-.02.342-.02.523 0 .919.057 1.171.19.36.188.523.546.523 1.037 0 .848-.54 1.282-1.622 1.282h-.81V2.282h.017zm.74 6.677c-.109 0-.235 0-.361-.019l-.379-.056V6.205h.847c1.28 0 1.91.472 1.91 1.396 0 .905-.685 1.358-2.018 1.358zM65.474 5.526c0-.773-.234-1.339-.703-1.735-.45-.358-1.027-.528-1.766-.528-.918 0-1.783.207-2.612.604l.54 1.263c.613-.283 1.226-.415 1.838-.415.739 0 1.117.208 1.117.642 0 .301-.36.546-1.063.697-1.045.246-1.711.434-1.982.585-.702.377-1.063.962-1.063 1.754 0 .736.343 1.302 1.01 1.66.522.283 1.17.434 1.963.434.739 0 1.676-.17 2.829-.528-.054-.378-.09-.68-.09-.868V5.526h-.018zM62.77 9.11c-.829 0-1.225-.283-1.225-.849 0-.302.162-.51.486-.66.145-.075.487-.17 1.027-.283.433-.094.703-.207.847-.358v1.81c0 .038.018.095.018.151-.396.113-.792.189-1.153.189zM69.924 3.263c-.757 0-1.766.226-3.009.698.036.226.054.415.072.584.018.17.018.302.018.397v5.413h1.586V5.319v-.132c0-.038-.018-.095-.018-.17.504-.207.955-.302 1.333-.302.883 0 1.315.434 1.315 1.283v4.357h1.586V5.734c.018-1.66-.955-2.471-2.883-2.471zM77.545 6.828c-.144-.17-.342-.302-.558-.378l3.062-3.055h-2.071l-2.145 2.358V.15H74.23v10.166h1.585V7.092c.253.188.45.358.577.509l2.108 2.697h1.928l-2.883-3.47z" transform="translate(-24 -17) translate(24 17) translate(20.235 26.889) translate(0 13.014)"/>
                    </g>
                </g>
                <g fill="#D22630">
                    <path d="M38.608 1.43c.325.02.45-.432.144-.507C36.225.3 33.698 0 31.17 0 18.372 0 6.295 7.85.284 20.502c-.577 1.224-.289 2.485.993 2.975l6.914 2.598c1.083.414 2.292-.132 2.69-1.205C16.657 9.715 26.676 1.035 38.608 1.43" transform="translate(-24 -17) translate(24 17) translate(.13 .038)"/>
                    <path d="M49.818 11.578c-3.105-5.535-8.015-8.434-13.467-8.434-.56 0-1.119.038-1.697.094-.072.019-.144.094-.18.17-.018.056-.036.113-.036.188 0 .15.09.282.198.339l.109.019c2.437.659 4.133 2.315 5.758 5.44.072.132.307.622 1.029.791l7.708 2.354c.054.018.09.018.144.018.307 0 .542-.282.542-.64 0-.113-.036-.226-.108-.339" transform="translate(-24 -17) translate(24 17) translate(.13 .038)"/>
                </g>
            </g>
        </g>
    </g>
</svg>
